# xmcd
#
# Track frame offsets:
#	150
#	20447
#	38498
#	59813
#	78869
#	96307
#	111319
#	127105
#	144196
#	159766
#	176052
#	194248
#
# Disc length: 2727 seconds
#
# Revision: 1
# Processed by: cddbd v1.5.2PL0 Copyright (c) Steve Scherf et al.
# Submitted via: audiograbber 1.83.01
#
DISCID=a40aa50c
DTITLE=One Flew South - Last of the Good Guys
DYEAR=2008
DGENRE=Country
TTITLE0=Last of the Good Guys
TTITLE1=My Kind of Beautiful
TTITLE2=Junkie
TTITLE3=Life
TTITLE4=She's a Gift
TTITLE5=Sara
TTITLE6=It is Good
TTITLE7=Shameless
TTITLE8=Let the Day Carry You
TTITLE9=Makin' it Rain
TTITLE10=Blue Highways
TTITLE11=Too Old to Die Young
EXTD=
EXTT0=
EXTT1=
EXTT2=
EXTT3=
EXTT4=
EXTT5=
EXTT6=
EXTT7=
EXTT8=
EXTT9=
EXTT10=
EXTT11=
PLAYORDER=
